<?xml version="1.0" encoding="UTF-8"?>
<svg id="Layer_1" data-name="Layer 1" xmlns="http://www.w3.org/2000/svg" viewBox="0 0 888.2 258.17">
  <defs>
    <style>
      .cls-1 {
        fill: #f05780;
      }

      .cls-2 {
        fill: #70cbd1;
      }

      .cls-3 {
        fill: none;
        stroke: #222855;
        stroke-linecap: round;
        stroke-linejoin: round;
        stroke-width: 1.4px;
      }

      .cls-4 {
        fill: #505eaa;
      }

      .cls-5 {
        fill: #222855;
      }

      .cls-6 {
        fill: #908bc3;
      }
    </style>
  </defs>
  <path class="cls-5" d="M397.32,71.77c-10.2-3.62-24.01-6.58-37.5-6.58-36.84,0-57.24,19.41-57.24,46.38,0,15.79,6.58,30.26,23.36,40.13l27.63,16.45c10.2,5.92,13.81,11.19,13.81,17.76,0,9.54-7.89,16.78-22.37,16.78s-31.91-7.9-40.13-15.13v37.17c10.86,4.93,26.65,9.21,42.11,9.21,36.51,0,57.89-19.74,57.89-47.7,0-15.79-6.91-30.59-26.98-42.76l-25.99-15.46c-7.89-4.94-12.17-8.55-12.17-15.46,0-8.88,7.24-15.79,21.05-15.79,12.5,0,25.99,4.61,36.51,11.51v-36.51Z"/>
  <polygon class="cls-5" points="623.84 66.15 587.65 80.15 587.65 230.33 623.84 230.33 623.84 66.15"/>
  <path class="cls-5" d="M583.37,22.37c0,12.5,9.54,22.37,22.37,22.37s22.04-9.87,22.04-22.37S618.57,0,605.74,0s-22.37,10.2-22.37,22.37"/>
  <polygon class="cls-5" points="884.25 66.15 848.07 80.15 848.07 230.33 884.25 230.33 884.25 66.15"/>
  <path class="cls-5" d="M843.79,22.37c0,12.5,9.54,22.37,22.37,22.37s22.04-9.87,22.04-22.37S878.99,0,866.16,0s-22.37,10.2-22.37,22.37"/>
  <path class="cls-5" d="M780.22,149.4c0,26.65-20.72,49.01-48.36,49.01s-48.36-22.37-48.36-49.01,20.72-48.68,48.36-48.68,48.36,21.71,48.36,48.68M816.07,196.28V3.35h-35.86v91.45c-11.84-18.42-31.25-29.61-55.26-29.61-46.38,0-78.95,36.51-78.95,84.21s32.57,84.54,78.62,84.54c24.01,0,43.75-11.51,55.59-29.93v26.32h35.86v-.27h6.9l11.67-33.77h-18.57Z"/>
  <path class="cls-1" d="M120.92,83.78l-53.48-53.48-27.94,27.94,39.51,39.51H0v21.59c.31,17.92,17.99,17.92,17.99,17.92,0,0,.32,0,.32,0h49.13l53.48-53.48Z"/>
  <path class="cls-6" d="M223.05,137.25h-48.65l-53.48,53.48,53.48,53.48,27.94-27.94-39.51-39.51h79.02v-20.96c0-18.54-18.66-18.54-18.79-18.54"/>
  <path class="cls-4" d="M120.92,239.42v-48.69l-53.48-53.48-53.48,53.48,27.94,27.94,39.51-39.51v79.02h22.11c17.39,0,17.39-18.21,17.39-18.21,0,0-.03-.54,0-.55"/>
  <path class="cls-2" d="M227.87,83.78l-27.94-27.94-39.51,39.51V16.34h-20.97c-18.53,0-18.51,18.8-18.51,18.8,0,0-.02.01-.02.01v48.63l53.48,53.48,53.48-53.48Z"/>
  <path class="cls-5" d="M120.92,111.39c-1.21,4.79-2.44,10.95-8.68,17.19-6.25,6.24-12.58,7.53-17.19,8.68,4.62,1.15,10.95,2.44,17.19,8.68,6.24,6.24,7.47,12.4,8.68,17.19,1.21-4.79,2.44-10.95,8.68-17.19,6.25-6.24,12.58-7.53,17.19-8.68-4.62-1.15-10.95-2.44-17.19-8.68-6.24-6.24-7.47-12.4-8.68-17.19"/>
  <path class="cls-3" d="M120.92,111.39c-1.21,4.79-2.44,10.95-8.68,17.19-6.25,6.24-12.58,7.53-17.19,8.68,4.62,1.15,10.95,2.44,17.19,8.68,6.24,6.24,7.47,12.4,8.68,17.19,1.21-4.79,2.44-10.95,8.68-17.19,6.25-6.24,12.58-7.53,17.19-8.68-4.62-1.15-10.95-2.44-17.19-8.68-6.24-6.24-7.47-12.4-8.68-17.19Z"/>
  <path class="cls-5" d="M514.57,180.77c0,14.52-13.21,26.08-29.38,26.08s-29.05-11.55-29.05-26.08,12.88-26.41,29.05-26.41,29.38,11.88,29.38,26.41M551.21,196.46v-66.2c0-45.89-26.08-65.36-66.35-65.36-17.5,0-34.66,4.62-46.55,10.23v34.99c12.54-7.92,27.73-12.88,42.59-12.88,18.15,0,34,9.24,34,32.35v13.53c-8.25-8.58-23.11-15.51-38.95-15.51-33.01,0-55.79,23.44-55.79,53.15s19.48,53.48,55.13,53.48c17.17,0,31.36-7.59,39.61-18.49v14.86h5.36v.08h37.7l11.71-34.24h-18.45Z"/>
</svg>